<?xml version="1.0" encoding="UTF-8"?><svg id="Layer_1" xmlns="http://www.w3.org/2000/svg" viewBox="0 0 1146.01 261.53"><defs><style>.cls-1{fill:#fff;}.cls-2{fill:#49977d;}</style></defs><g><rect class="cls-2" width="261.53" height="261.53" rx="58.64" ry="58.64"/><g><polygon class="cls-1" points="218.6 133.02 210.11 124.53 171.57 163.08 133.02 124.53 124.53 133.02 163.08 171.57 124.53 210.12 133.02 218.6 171.57 180.05 210.11 218.6 218.6 210.12 180.05 171.57 218.6 133.02"/><polygon class="cls-1" points="155.97 101.45 155.97 89.45 101.45 89.45 101.45 34.93 89.45 34.93 89.45 89.45 34.93 89.45 34.93 101.45 89.45 101.45 89.45 155.97 101.45 155.97 101.45 101.45 155.97 101.45"/></g></g><g><path class="cls-2" d="M528.23,70.43c-36.18,0-51.93,26.47-51.93,60.13s15.75,60.13,51.93,60.13,51.93-26.63,51.93-60.13-15.91-60.13-51.93-60.13Zm0,106.53c-27.81,0-36.85-22.78-36.85-46.4s8.88-46.4,36.85-46.4,36.85,22.78,36.85,46.4-9.05,46.4-36.85,46.4Z"/><path class="cls-2" d="M679.99,147.48c0,18.09-9.72,29.82-30.15,29.82s-29.98-11.73-29.98-29.82V71.94h-14.57v75.88c0,26.97,17.09,42.88,44.56,42.88s44.89-15.91,44.89-42.88V71.94h-14.74v75.54Z"/><path class="cls-2" d="M810.14,107.11c0-19.93-13.23-35.18-37.19-35.18h-46.4v117.25h14.57v-46.4h28.48l30.82,46.4h15.91v-1.67l-31.49-46.57c15.24-4.36,25.29-16.42,25.29-33.84Zm-69.01,22.28v-44.05h30.99c14.74,0,22.78,8.21,22.78,21.94s-8.04,22.11-22.78,22.11h-30.99Z"/><polygon class="cls-2" points="895.41 143.46 894.74 143.46 855.21 71.94 837.96 71.94 837.96 189.19 851.86 189.19 851.86 94.72 852.53 94.72 894.07 169.09 895.74 169.09 937.29 95.22 937.96 95.22 937.96 189.19 951.86 189.19 951.86 71.94 934.94 71.94 895.41 143.46"/><rect class="cls-2" x="985.36" y="71.94" width="14.74" height="117.25"/><polygon class="cls-2" points="1146.01 80.9 1135.76 70.65 1086.24 120.17 1036.71 70.65 1026.46 80.9 1075.99 130.42 1026.46 179.95 1036.71 190.2 1086.24 140.67 1135.76 190.2 1146.01 179.95 1096.49 130.42 1146.01 80.9"/><polygon class="cls-2" points="351.49 86.43 404.79 86.43 404.79 191.1 419.28 191.1 419.28 86.43 472.57 86.43 472.57 71.94 351.49 71.94 351.49 86.43"/></g></svg>